HIERARCHY
ROOT Hips
{
    OFFSET 0.000000 0.000000 0.000000
    CHANNELS 6 Xposition Yposition Zposition Zrotation Xrotation Yrotation
    JOINT Spine
    {
        OFFSET -0.000000 0.083210 0.000000
        CHANNELS 3 Zrotation Xrotation Yrotation
        JOINT Spine1
        {
            OFFSET -0.000000 0.256334 0.000000
            CHANNELS 3 Zrotation Xrotation Yrotation
            JOINT Neck
            {
                OFFSET -0.000000 0.275576 0.002912
                CHANNELS 3 Zrotation Xrotation Yrotation
                JOINT Head
                {
                    OFFSET -0.000000 0.157287 0.020295
                    CHANNELS 3 Zrotation Xrotation Yrotation
                    End Site
                    {
                        OFFSET -0.000000 0.202951 0.000000
                    }
                }
            }
            JOINT LeftShoulder
            {
                OFFSET 0.041044 0.235234 -0.000041
                CHANNELS 3 Zrotation Xrotation Yrotation
                JOINT LeftArm
                {
                    OFFSET 0.117964 0.000000 0.000000
                    CHANNELS 3 Zrotation Xrotation Yrotation
                    JOINT LeftForeArm
                    {
                        OFFSET 0.291248 0.000000 0.000000
                        CHANNELS 3 Zrotation Xrotation Yrotation
                        JOINT LeftHand
                        {
                            OFFSET 0.245673 0.000000 0.000000
                            CHANNELS 3 Zrotation Xrotation Yrotation
                            End Site
                            {
                                OFFSET 0.152213 0.000000 0.000000
                            }
                        }
                    }
                }
            }
            JOINT RightShoulder
            {
                OFFSET -0.040052 0.235234 -0.000041
                CHANNELS 3 Zrotation Xrotation Yrotation
                JOINT RightArm
                {
                    OFFSET -0.117964 0.000000 0.000000
                    CHANNELS 3 Zrotation Xrotation Yrotation
                    JOINT RightForeArm
                    {
                        OFFSET -0.291248 0.000000 0.000000
                        CHANNELS 3 Zrotation Xrotation Yrotation
                        JOINT RightHand
                        {
                            OFFSET -0.245673 0.000000 0.000000
                            CHANNELS 3 Zrotation Xrotation Yrotation
                            End Site
                            {
                                OFFSET -0.152213 0.000000 0.000000
                            }
                        }
                    }
                }
            }
        }
    }
    JOINT LeftUpLeg
    {
        OFFSET 0.101475 0.000000 0.000000
        CHANNELS 3 Zrotation Xrotation Yrotation
        JOINT LeftLeg
        {
            OFFSET -0.000000 -0.446535 0.000000
            CHANNELS 3 Zrotation Xrotation Yrotation
            JOINT LeftFoot
            {
                OFFSET -0.000000 -0.400037 0.000000
                CHANNELS 3 Zrotation Xrotation Yrotation
                JOINT LeftToeBase
                {
                    OFFSET -0.000000 -0.065959 0.152213
                    CHANNELS 3 Zrotation Xrotation Yrotation
                    End Site
                    {
                        OFFSET -0.000000 0.000000 0.040590
                    }
                }
            }
        }
    }
    JOINT RightUpLeg
    {
        OFFSET -0.101475 0.000000 0.000000
        CHANNELS 3 Zrotation Xrotation Yrotation
        JOINT RightLeg
        {
            OFFSET -0.000000 -0.446535 0.000000
            CHANNELS 3 Zrotation Xrotation Yrotation
            JOINT RightFoot
            {
                OFFSET -0.000000 -0.400037 0.000000
                CHANNELS 3 Zrotation Xrotation Yrotation
                JOINT RightToeBase
                {
                    OFFSET -0.000000 -0.065959 0.152213
                    CHANNELS 3 Zrotation Xrotation Yrotation
                    End Site
                    {
                        OFFSET -0.000000 0.000000 0.040590
                    }
                }
            }
        }
    }
}
MOTION
Frames:    9
Frame Time:    0.008333
0.007417    0.951103    0.026930    -0.045445    -0.716537    -89.801003    -1.327588    -2.656477    -0.459161    -2.042140    5.383100    -0.046812    2.231093    -4.448949    0.409809    2.663801    3.838667    0.201206    14.367783    -0.001827    -0.333548    -23.971336    -1.703498    7.408221    1.725539    -0.186397    -1.485269    4.784102    -0.071835    2.204328    -10.033753    2.523463    7.483032    23.555004    0.624679    -3.494830    -1.397887    -4.182477    0.127737    3.432959    -4.315859    -4.513035    2.119019    2.688218    3.625442    -0.491213    4.518926    3.800175    -2.444692    -7.537349    0.552486    -0.042741    2.245569    0.405992    -3.672024    0.249591    3.471558    2.574745    10.222167    2.468847    0.519261    -10.960382    -8.168869    0.019629    -0.324906    0.689965    
0.007431    0.951112    0.026936    -0.032764    -0.711448    -89.810120    -1.325491    -2.641221    -0.449072    -2.036478    5.372942    -0.044243    2.231131    -4.431416    0.413926    2.659787    3.822700    0.206839    14.370114    -0.005946    -0.323373    -23.978670    -1.722175    7.410074    1.721260    -0.180396    -1.494054    4.797740    -0.065615    2.211547    -10.034961    2.526099    7.496689    23.564322    0.645126    -3.480500    -1.406239    -4.201052    0.120601    3.495590    -4.335157    -4.453058    2.124410    2.686122    3.611645    -0.496280    4.499191    3.822603    -2.442117    -7.532068    0.553254    -0.042052    2.247216    0.399396    -3.666822    0.237911    3.477996    2.573402    10.213593    2.461064    0.518990    -10.949488    -8.159992    0.019761    -0.328116    0.693927    
0.007447    0.951115    0.026953    -0.017393    -0.707857    -89.816711    -1.325808    -2.626359    -0.438088    -2.027072    5.360194    -0.041315    2.225153    -4.423249    0.415340    2.665258    3.823118    0.207055    14.364975    -0.011419    -0.316744    -23.978765    -1.744222    7.408439    1.715771    -0.176267    -1.495605    4.791276    -0.061804    2.206432    -10.037528    2.529180    7.496060    23.572460    0.663172    -3.455770    -1.410450    -4.210575    0.104668    3.505855    -4.345230    -4.452224    2.126992    2.677597    3.603262    -0.498560    4.485154    3.840808    -2.443606    -7.525983    0.549404    -0.042244    2.236323    0.401580    -3.664749    0.222179    3.477009    2.572872    10.209019    2.462676    0.523746    -10.944579    -8.156559    0.019803    -0.325072    0.696067    
0.007458    0.951123    0.026967    -0.005758    -0.702887    -89.825478    -1.323742    -2.604340    -0.429069    -2.018023    5.338960    -0.039105    2.211739    -4.400514    0.418890    2.680081    3.814626    0.207733    14.361176    -0.018920    -0.316143    -23.977331    -1.774950    7.422040    1.708025    -0.165390    -1.502287    4.771734    -0.051493    2.206718    -10.042183    2.527523    7.511143    23.581573    0.672149    -3.449401    -1.410294    -4.201438    0.097616    3.508056    -4.336451    -4.457730    2.132719    2.673122    3.597365    -0.503577    4.471222    3.869857    -2.446593    -7.521429    0.534760    -0.041959    2.236170    0.398873    -3.659812    0.208804    3.482114    2.571914    10.205732    2.454471    0.527488    -10.937452    -8.145191    0.019776    -0.323442    0.695459    
0.007469    0.951135    0.026974    0.005922    -0.697184    -89.834137    -1.322378    -2.581988    -0.418926    -2.009609    5.318596    -0.036555    2.203018    -4.384766    0.420801    2.691915    3.822993    0.207081    14.358543    -0.018644    -0.312499    -23.975887    -1.795952    7.422994    1.705230    -0.153589    -1.502735    4.722041    -0.040215    2.213898    -10.043468    2.520117    7.520648    23.586946    0.678846    -3.444798    -1.404621    -4.171005    0.100437    3.483801    -4.306865    -4.517440    2.138462    2.664896    3.604768    -0.504694    4.464941    3.871727    -2.447320    -7.519292    0.534006    -0.041892    2.238987    0.398146    -3.653350    0.193777    3.486614    2.570177    10.206587    2.448708    0.529855    -10.931171    -8.139913    0.019896    -0.323335    0.699708    
0.007475    0.951148    0.026986    0.015653    -0.693145    -89.840363    -1.322171    -2.557975    -0.415057    -2.003369    5.296982    -0.035918    2.203340    -4.364735    0.426185    2.692919    3.828257    0.212777    14.362512    -0.025825    -0.305292    -23.986912    -1.784714    7.427227    1.705772    -0.157531    -1.495816    4.717636    -0.044313    2.211015    -10.043180    2.517168    7.537435    23.586000    0.672539    -3.438494    -1.393088    -4.148443    0.097088    3.468624    -4.284016    -4.526413    2.143778    2.657027    3.609427    -0.508611    4.462996    3.875440    -2.445993    -7.517890    0.528850    -0.042358    2.236737    0.402652    -3.649195    0.182443    3.488598    2.568436    10.203465    2.434640    0.534654    -10.922338    -8.123256    0.020014    -0.322759    0.703980    
0.007485    0.951164    0.026999    0.026409    -0.688209    -89.844017    -1.319985    -2.532392    -0.411476    -1.997826    5.271196    -0.035951    2.200338    -4.343881    0.431649    2.702387    3.838722    0.216750    14.363039    -0.029402    -0.307352    -23.991619    -1.780460    7.436849    1.704183    -0.157757    -1.488289    4.701227    -0.044602    2.216979    -10.041148    2.520534    7.550177    23.582640    0.671660    -3.426989    -1.381457    -4.138247    0.091710    3.437372    -4.272855    -4.532207    2.150765    2.643663    3.609066    -0.514628    4.468985    3.872626    -2.443302    -7.520658    0.537032    -0.042314    2.237840    0.402199    -3.644674    0.167609    3.486149    2.567919    10.207282    2.436066    0.534561    -10.919000    -8.118945    0.019831    -0.319138    0.698316    
0.007483    0.951179    0.027008    0.035793    -0.683444    -89.847534    -1.319622    -2.506440    -0.408676    -1.992331    5.244414    -0.035596    2.204488    -4.321163    0.435990    2.705205    3.848819    0.221353    14.368862    -0.033090    -0.307437    -24.003016    -1.755909    7.441481    1.706382    -0.162907    -1.475842    4.691243    -0.050116    2.223638    -10.048002    2.628928    7.518230    23.567385    0.578543    -3.316289    -1.365992    -4.123968    0.081241    3.446293    -4.257889    -4.493197    2.157470    2.630932    3.620064    -0.518665    4.477875    3.868226    -2.441979    -7.524078    0.531373    -0.042573    2.239379    0.404604    -3.640019    0.154905    3.486899    2.568093    10.211116    2.436900    0.539751    -10.915378    -8.120718    0.020069    -0.326855    0.705037    
0.007491    0.951202    0.027015    0.046369    -0.679237    -89.848167    -1.318959    -2.479860    -0.407394    -1.992029    5.218958    -0.035784    2.219062    -4.311238    0.435533    2.698553    3.874163    0.223005    14.376961    -0.037552    -0.303181    -24.010389    -1.736242    7.442579    1.697927    -0.132648    -1.459018    4.691463    -0.018104    2.276287    -10.042959    2.633977    7.528139    23.565872    0.583987    -3.303983    -1.360647    -4.119119    0.076541    3.435810    -4.253301    -4.514030    2.164383    2.612193    3.631823    -0.522429    4.494719    3.838320    -2.438415    -7.533370    0.549222    -0.042751    2.237982    0.406343    -3.634331    0.139937    3.479264    2.564564    10.217826    2.438623    0.539989    -10.913005    -8.116185    0.020075    -0.322731    0.706145    
